<?xml version="1.0" encoding="UTF-8" standalone="no"?>
<!-- Created with Inkscape (http://www.inkscape.org/) -->

<svg
        width="586.9032mm"
        height="150.45161mm"
        viewBox="0 0 586.9032 150.45161"
        version="1.1"
        id="svg1"
        xml:space="preserve"
        inkscape:export-filename="logo.svg"
        inkscape:export-xdpi="96"
        inkscape:export-ydpi="96"
        xmlns:inkscape="http://www.inkscape.org/namespaces/inkscape"
        xmlns:sodipodi="http://sodipodi.sourceforge.net/DTD/sodipodi-0.dtd"
        xmlns="http://www.w3.org/2000/svg"
><sodipodi:namedview
     id="namedview1"
     pagecolor="#505050"
     bordercolor="#eeeeee"
     borderopacity="1"
     inkscape:showpageshadow="0"
     inkscape:pageopacity="0"
     inkscape:pagecheckerboard="0"
     inkscape:deskcolor="#505050"
     inkscape:document-units="mm"
     showguides="true" /><defs
     id="defs1" /><g
     inkscape:label="Capa 1"
     inkscape:groupmode="layer"
     id="layer1"
     transform="translate(96.516131,168.90322)"><g
       id="g7"
       inkscape:export-filename="logo_v_white.svg"
       inkscape:export-xdpi="96"
       inkscape:export-ydpi="96"><rect
         style="fill:none;fill-opacity:1;stroke-width:0.260367"
         id="rect4"
         width="586.9032"
         height="150.45161"
         x="-96.516129"
         y="-168.90323" /><g
         id="g4"
         transform="translate(-80.145393,-179.92139)"><g
           id="g6"><g
             id="g2"
             transform="translate(25.592704,-23.141381)"><rect
               style="fill:#010101;fill-opacity:1;stroke-width:0.264583"
               id="rect1"
               width="130"
               height="130"
               x="-20.372967"
               y="44.385353" /><g
               id="g1"
               style="fill:#ffffff"
               transform="translate(-60.466815,-39.332077)"><path
                 style="-inkscape-font-specification:'Metropolis Bold';fill:#ffffff;stroke-width:0.433086"
                 d="m 57.955508,178.12347 h 29.397275 c 10.667699,0 18.322387,-6.45306 18.322387,-15.79302 0,-6.45307 -3.74591,-11.88723 -10.260534,-14.94395 4.967404,-2.71707 7.817554,-7.04742 7.817554,-12.99103 0,-8.49088 -6.921793,-14.6043 -16.938038,-14.6043 H 57.955508 Z M 69.92614,143.31089 v -12.82122 h 13.354999 c 4.478802,0 7.654686,2.71708 7.654686,6.36816 0,3.73598 -3.175884,6.45306 -7.654686,6.45306 z m 0,24.11408 v -14.26466 h 15.227955 c 4.804534,0 8.224714,2.9718 8.224714,7.13233 0,4.16052 -3.42018,7.13233 -8.224714,7.13233 z"
                 id="text1"
                 aria-label="B" /><path
                 style="-inkscape-font-specification:'Metropolis Bold';fill:#ffffff;stroke-width:0.420129"
                 d="m 133.51035,133.37335 c -5.66375,0 -10.38355,2.56424 -13.60874,6.94826 v -21.01022 h -11.48483 v 57.81947 h 11.48483 v -6.03837 c 3.22519,4.46674 7.94499,7.03098 13.60874,7.03098 10.85552,0 18.72184,-9.26435 18.72184,-22.41642 0,-13.06935 -7.86632,-22.3337 -18.72184,-22.3337 z m -3.30386,34.57588 c -5.58509,0 -9.67557,-4.30131 -10.30488,-10.58783 v -3.3087 c 0.62931,-6.2038 4.71979,-10.50511 10.30488,-10.50511 6.37172,0 10.85552,5.04576 10.85552,12.15946 0,7.19641 -4.4838,12.24218 -10.85552,12.24218 z"
                 id="text1-7"
                 aria-label="b" /></g></g><g
             id="g5"><path
               d="m 153.49276,131.47623 h 8.35378 V 92.698923 h -8.35378 z m 16.42536,0 h 8.29733 v -25.06132 l 18.68309,25.06132 h 8.35378 V 92.698923 h -8.35378 V 117.76024 L 178.21545,92.698923 h -8.29733 z m 73.2084,-31.2702 v -7.507107 h -29.85909 v 38.777307 h 8.35378 v -15.35288 h 19.47331 v -7.50711 h -19.47331 v -8.41021 z m 25.00491,31.94753 c 11.23244,0 20.60221,-9.20044 20.60221,-20.09421 0,-10.89377 -9.36977,-20.037759 -20.60221,-20.037759 -11.11955,0 -20.60221,9.143989 -20.60221,20.037759 0,10.89377 9.48266,20.09421 20.60221,20.09421 z m 0,-7.56355 c -6.49111,0 -12.02266,-5.75733 -12.02266,-12.53066 0,-6.71688 5.53155,-12.47421 12.02266,-12.47421 6.54755,0 12.0791,5.75733 12.0791,12.47421 0,6.77333 -5.53155,12.53066 -12.0791,12.53066 z m 59.54887,6.88622 -9.53911,-13.54666 c 5.30578,-1.86266 8.80533,-6.37822 8.80533,-12.13555 0,-7.676434 -6.20888,-13.095097 -14.6191,-13.095097 H 294.8861 v 38.777307 h 8.29733 v -12.5871 h 6.15244 l 8.86177,12.5871 z m -24.49687,-31.15731 h 8.24088 c 4.12044,0 6.94266,2.14488 6.94266,5.4751 0,3.33022 -2.82222,5.47511 -6.94266,5.47511 h -8.24088 z m 30.31061,31.15731 h 8.29733 v -24.15821 l 12.02265,21.90043 11.96622,-21.90043 v 24.15821 h 8.35377 V 92.698923 h -8.35377 L 353.81402,114.59935 341.79137,92.698923 h -8.29733 z m 78.45775,-31.2702 v -7.507107 h -29.85908 v 38.777307 h 29.85908 v -7.50711 h -21.50531 v -8.5231 h 19.47331 v -7.50711 h -19.47331 v -7.73288 z m 20.99737,31.94753 c 9.48266,0 15.07065,-4.91066 15.07065,-12.30488 0,-7.16844 -5.53155,-9.65199 -13.88532,-11.51466 -5.98311,-1.35466 -8.29733,-2.25777 -8.29733,-5.07999 0,-2.31422 2.14489,-4.176889 5.70089,-4.176889 3.72533,0 7.61999,1.523999 11.0631,4.289779 l 4.34622,-5.983111 c -3.95111,-3.386664 -8.86177,-5.362218 -15.18354,-5.362218 -8.46666,0 -14.33688,4.910663 -14.33688,12.079099 0,7.50711 5.81377,9.82133 13.99821,11.68399 5.92666,1.35467 8.18444,2.20134 8.18444,4.96711 0,2.42711 -2.14489,4.34622 -6.32178,4.34622 -4.91066,0 -9.08754,-1.91911 -12.75643,-5.08 l -4.79777,5.70089 c 4.51555,4.17688 10.49865,6.43466 17.21554,6.43466 z"
               id="text2"
               style="-inkscape-font-specification:'Metropolis Bold';fill:#ffffff;stroke-width:0.264583"
               aria-label="INFORMES" /><path
               d="m 153.49276,79.789017 h 20.37643 c 7.39421,0 12.69999,-4.289775 12.69999,-10.498659 0,-4.289774 -2.59645,-7.902216 -7.112,-9.934214 3.44311,-1.806221 5.41866,-4.684886 5.41866,-8.635994 0,-5.64444 -4.79777,-9.708437 -11.74043,-9.708437 h -19.64265 z m 8.29732,-23.142205 v -8.523104 h 9.25689 c 3.10444,0 5.30577,1.806221 5.30577,4.23333 0,2.483554 -2.20133,4.289774 -5.30577,4.289774 z m 0,16.03021 v -9.482659 h 10.55511 c 3.33022,0 5.70088,1.975554 5.70088,4.74133 0,2.765775 -2.37066,4.741329 -5.70088,4.741329 z m 38.89016,-0.395111 V 41.011713 h -8.35377 v 38.777304 h 27.65776 v -7.507106 z m 53.11418,7.507106 h 9.36977 L 247.35976,41.011713 h -9.31333 L 222.242,79.789017 h 9.31333 l 2.48355,-6.095996 h 17.27199 z m -16.87687,-13.151546 5.75732,-14.167544 5.75733,14.167544 z m 49.89681,13.828879 c 5.87022,0 11.28888,-2.539999 15.07066,-6.491107 l -6.03956,-5.418662 c -2.25777,2.596442 -5.4751,4.346219 -9.0311,4.346219 -6.49111,0 -12.02266,-5.757329 -12.02266,-12.530657 0,-6.716884 5.53155,-12.474213 12.02266,-12.474213 3.556,0 6.77333,1.749777 9.0311,4.346219 l 6.03956,-5.418662 c -3.78178,-4.007553 -9.20044,-6.491106 -15.07066,-6.491106 -11.11955,0 -20.60221,9.143993 -20.60221,20.037762 0,10.893769 9.48266,20.094207 20.60221,20.094207 z m 20.48926,-0.677333 h 8.29733 V 68.951692 l 4.85422,-5.192885 11.90977,16.03021 h 10.10354 L 326.26894,57.832145 341.39604,41.011713 H 331.29249 L 315.60095,58.7917 V 41.011713 h -8.29733 z m 39.51105,0 h 20.37643 c 7.39422,0 12.69999,-4.289775 12.69999,-10.498659 0,-4.289774 -2.59644,-7.902216 -7.11199,-9.934214 3.44311,-1.806221 5.41866,-4.684886 5.41866,-8.635994 0,-5.64444 -4.79777,-9.708437 -11.74044,-9.708437 H 346.81467 Z M 355.112,56.646812 v -8.523104 h 9.25688 c 3.10444,0 5.30577,1.806221 5.30577,4.23333 0,2.483554 -2.20133,4.289774 -5.30577,4.289774 z m 0,16.03021 v -9.482659 h 10.5551 c 3.33022,0 5.70089,1.975554 5.70089,4.74133 0,2.765775 -2.37067,4.741329 -5.70089,4.741329 z m 49.89682,7.789328 c 11.23243,0 20.6022,-9.200438 20.6022,-20.094207 0,-10.893769 -9.36977,-20.037762 -20.6022,-20.037762 -11.11955,0 -20.60221,9.143993 -20.60221,20.037762 0,10.893769 9.48266,20.094207 20.60221,20.094207 z m 0,-7.56355 c -6.49111,0 -12.02266,-5.757329 -12.02266,-12.530657 0,-6.716884 5.53155,-12.474213 12.02266,-12.474213 6.54755,0 12.0791,5.757329 12.0791,12.474213 0,6.773328 -5.53155,12.530657 -12.0791,12.530657 z m 55.20262,6.886217 h 9.36977 L 453.77678,41.011713 h -9.31332 l -15.80444,38.777304 h 9.31333 l 2.48355,-6.095996 h 17.27199 z m -16.87687,-13.151546 5.75733,-14.167544 5.75733,14.167544 z m 63.61283,13.151546 -9.5391,-13.546656 c 5.30577,-1.862666 8.80533,-6.378218 8.80533,-12.135547 0,-7.676438 -6.20889,-13.095101 -14.6191,-13.095101 h -17.44132 v 38.777304 h 8.29732 V 67.201915 h 6.15244 l 8.86177,12.587102 z m -24.49687,-31.15731 h 8.24089 c 4.12044,0 6.94266,2.144888 6.94266,5.475107 0,3.33022 -2.82222,5.475107 -6.94266,5.475107 h -8.24089 z m 30.3106,31.15731 h 13.88532 c 13.03866,0 22.29554,-8.07155 22.29554,-19.416874 0,-11.345325 -9.25688,-19.36043 -22.29554,-19.36043 h -13.88532 z m 8.29733,-7.56355 V 48.575263 h 6.66044 c 7.39421,0 12.64354,4.910663 12.64354,11.79688 0,6.942661 -5.24933,11.853324 -12.64354,11.853324 z"
               id="text4"
               style="-inkscape-font-specification:'Metropolis Bold';fill:#ffffff;stroke-width:0.264583"
               aria-label="BLACKBOARD" /></g></g></g></g></g></svg>
