<?xml version="1.0" encoding="UTF-8" standalone="no"?>
<svg
        id="Capa_2"
        data-name="Capa 2"
        viewBox="0 0 423.4 136.58"
        version="1.1"
        sodipodi:docname="logo_v.svg"
        inkscape:version="1.3 (0e150ed6c4, 2023-07-21)"
        xmlns:inkscape="http://www.inkscape.org/namespaces/inkscape"
        xmlns:sodipodi="http://sodipodi.sourceforge.net/DTD/sodipodi-0.dtd"
        xmlns="http://www.w3.org/2000/svg"
>
  <sodipodi:namedview
     id="namedview11"
     pagecolor="#505050"
     bordercolor="#eeeeee"
     borderopacity="1"
     inkscape:showpageshadow="0"
     inkscape:pageopacity="0"
     inkscape:pagecheckerboard="0"
     inkscape:deskcolor="#505050"
     inkscape:zoom="1.6639112"
     inkscape:cx="205.84031"
     inkscape:cy="68.212774"
     inkscape:window-width="1920"
     inkscape:window-height="1057"
     inkscape:window-x="-8"
     inkscape:window-y="-8"
     inkscape:window-maximized="1"
     inkscape:current-layer="g11" />
  <defs
     id="defs1">
    <style
       id="style1">&#10;      .cls-1 {&#10;        fill: #515c66;&#10;      }&#10;&#10;      .cls-2 {&#10;        fill: #399db2;&#10;      }&#10;    </style>
  </defs>
  <g
     id="Capa_1-2"
     data-name="Capa 1">
    <g
       id="g11">
      <path
         d="m 32.691556,20.453857 q 8.471396,0 12.770314,5.484192 4.362137,5.347085 4.362137,18.783356 0,8.637597 -2.212678,14.396003 -2.212678,5.621297 -6.385157,7.266555 v 0.685521 q 2.844872,0.959738 5.120769,3.564723 2.339117,2.604996 3.666724,7.403664 1.327607,4.798667 1.327607,12.476537 0,13.299162 -4.235699,20.565712 -4.172478,7.26655 -11.442706,7.26655 H 19.794804 V 20.453857 Z m 1.13795,41.67985 q 5.816182,0 7.96564,-3.976037 2.149459,-4.113136 2.149459,-12.065223 0,-8.089173 -2.655214,-11.516799 -2.591994,-3.564722 -8.344957,-3.564722 h -7.459886 v 31.122781 z m -8.344958,10.282868 v 35.510145 h 9.10359 q 6.00584,0 8.344957,-5.07288 2.339117,-5.072876 2.339117,-13.29917 0,-7.67787 -2.465556,-12.339428 -2.402336,-4.798667 -8.661054,-4.798667 z M 73.59447,118.34667 H 57.283872 v -7.12944 l 5.310427,-2.60499 V 30.325401 L 57.283872,27.583306 V 20.453857 H 73.59447 v 7.129449 l -5.310427,2.742095 v 78.286839 l 5.310427,2.60499 z m 48.10998,-49.083504 q 0,15.218631 -2.40233,26.598321 -2.33912,11.242603 -6.95413,17.549423 -4.61502,6.30682 -11.44271,6.30682 -7.017351,0 -11.695584,-6.30682 -4.615012,-6.30682 -6.89091,-17.68652 -2.275897,-11.379701 -2.275897,-26.598333 0,-15.081523 2.275897,-26.324117 2.275898,-11.242596 6.89091,-17.549415 4.678233,-6.306821 11.758804,-6.306821 6.76447,0 11.37949,6.306821 4.61501,6.169715 6.95413,17.549415 2.40233,11.242594 2.40233,26.461226 z m -35.655722,0 q 0,18.509149 3.603503,29.203319 3.603511,10.557075 11.253049,10.557075 7.71276,0 11.25305,-10.557075 3.54029,-10.69417 3.54029,-29.203319 0,-18.509149 -3.54029,-28.929113 -3.54029,-10.55707 -11.18983,-10.55707 -7.649546,0 -11.316269,10.55707 -3.603503,10.419964 -3.603503,28.929113 z M 131.69313,118.34667 V 20.453857 h 5.68974 V 107.3783 h 19.72445 v 10.96837 z m 58.35149,0 H 164.82009 V 20.453857 h 25.22453 v 10.831277 h -19.53479 v 30.574368 h 18.39684 v 10.69417 H 170.50983 V 107.5154 h 19.53479 z m 22.37964,-97.892813 q 8.40818,0 12.391,6.992344 4.04604,6.855241 4.04604,20.839928 0,7.814979 -1.32761,13.02496 -1.32761,5.209982 -3.41385,8.363391 -2.02302,3.0163 -4.29891,4.798668 l 12.391,43.873522 h -6.63804 L 214.63694,77.900763 h -8.97715 v 40.445907 h -5.68975 V 20.453857 Z m -0.3161,10.694174 h -6.44837 v 36.332767 h 6.76447 q 5.50009,0 8.02886,-4.661558 2.52878,-4.798668 2.52878,-13.984688 0,-9.597335 -2.65521,-13.573372 -2.65522,-4.113149 -8.21853,-4.113149 z m 39.13278,-10.694174 q 8.85071,0 12.89675,7.540763 4.04605,7.540766 4.04605,21.251247 0,8.089173 -1.70693,15.218631 -1.6437,6.992338 -5.62652,11.379691 -3.91961,4.387353 -10.68408,4.387353 h -5.18398 v 38.115128 h -5.68975 V 20.453857 Z m -0.50575,10.557069 h -5.75296 V 69.67448 h 4.55179 q 6.44838,0 9.60934,-4.524461 3.16097,-4.524461 3.16097,-15.35574 0,-9.460226 -2.78165,-14.121796 -2.78165,-4.661557 -8.78749,-4.661557 z m 26.80498,87.335744 V 20.453857 h 5.68974 V 107.3783 h 19.72445 v 10.96837 z m 61.44925,0 -5.43687,-30.30015 h -17.89109 l -5.37364,30.30015 h -5.75297 l 17.63821,-98.304128 h 5.12077 l 17.57499,98.304128 z M 326.78807,47.4635 q -0.18966,-1.096836 -0.63219,-3.976039 -0.44254,-2.879202 -0.88507,-5.895502 -0.37932,-3.153409 -0.63219,-4.798668 -0.44254,4.250244 -1.01151,8.363391 -0.56898,3.976039 -0.94829,6.306818 l -5.12078,29.614633 h 14.28758 z m 34.13848,70.88317 h -5.68974 V 31.285134 H 341.13889 V 20.453857 h 33.82236 v 10.831277 h -14.0347 z m 46.08691,0 H 381.78893 V 20.453857 h 25.22453 v 10.831277 h -19.53478 v 30.574368 h 18.39683 v 10.69417 H 387.47868 V 107.5154 h 19.53478 z"
         id="text11"
         aria-label="BIOLERPLATE"
         style="stroke-width:7.75837" />
    </g>
  </g>
</svg>
